# xmcd CD database file
#
# Track frame offsets:
#	150
#	22594
#	45694
#	63834
#	79284
#	96384
#	107168
#	126218
#	143598
#	160344
#	178794
#	198903
#
# Disc length: 2899 seconds
#
# Revision: 0
# Processed by: cddbd v1.5.2PL0 Copyright (c) Steve Scherf et al.
# Submitted via: CDex 1.51
#
DISCID=9b0b510c
DTITLE=Alka - Principles Of Suffocation
DYEAR=2007
DGENRE=New Age
TTITLE0=Dayone
TTITLE1=Furtive
TTITLE2=Decompose
TTITLE3=Side Of A Mountain
TTITLE4=I Fell Down A Very Long Well
TTITLE5=A Modest Collection Of Lint
TTITLE6=The Clouds Are Quite Wispy
TTITLE7=Abandon
TTITLE8=Pure-People
TTITLE9=Tesla
TTITLE10=Digging A Hole
TTITLE11=Un-Vaccina
EXTD=YEAR: 2007
EXTT0=
EXTT1=
EXTT2=
EXTT3=
EXTT4=
EXTT5=
EXTT6=
EXTT7=
EXTT8=
EXTT9=
EXTT10=
EXTT11=
PLAYORDER=
